# xmcd
#
# Track frame offsets: 
#        150
#        21582
#        38375
#        52155
#        65262
#        88630
#        105897
#        121435
#        137170
#        154307
#
# Disc length: 2334 seconds
#
# Revision: 2
# Processed by: cddbd v1.5PL3 Copyright (c) Steve Scherf et al.
# Submitted via: ExactAudioCopy v0.90b4
#
DISCID=81091c0a
DTITLE=The Oak Ridge Boys - American Dreams
DYEAR=1900
DGENRE=Country
TTITLE0=Cajun Girl
TTITLE1=Baby, You'll Be My Baby
TTITLE2=An American Family
TTITLE3=No Matter How High
TTITLE4=If I Was To Start Crying
TTITLE5=Turning For Home
TTITLE6=In My Own Crazy Way
TTITLE7=Don't Give Up
TTITLE8=Bed Of Roses
TTITLE9=The American Dream
EXTD=
EXTT0=
EXTT1=
EXTT2=
EXTT3=
EXTT4=
EXTT5=
EXTT6=
EXTT7=
EXTT8=
EXTT9=
PLAYORDER=
